<svg width="110px" height="81px" viewBox="0 0 110 81" version="1.1" xmlns="http://www.w3.org/2000/svg" xmlns:xlink="http://www.w3.org/1999/xlink">
    <g stroke="none" stroke-width="1" fill="none" fill-rule="evenodd">
        <g transform="translate(-73.000000, -413.000000)" fill-rule="nonzero">
            <g transform="translate(0.000000, 264.000000)">
                <g>
                    <g transform="translate(16.000000, 16.000000)">
                        <g transform="translate(1.000000, 127.000000)">
                            <g transform="translate(111.306692, 46.904257) rotate(6.100000) translate(-111.306692, -46.904257) translate(55.806692, 6.404257)">
                                <path d="M11.5578889,15.6776975 C11.5578889,15.6776975 29.0851658,22.1292297 37.6220701,18.928819 C46.1589744,15.7284083 52.3963561,1.74351491 52.3963561,1.74351491 C52.3963561,1.74351491 57.7765367,12.6181499 68.118537,15.0550824 C78.4605372,17.4920149 95.0340681,7.1301217 95.0340681,7.1301217 C95.0340681,7.1301217 88.3871021,21.6615641 90.9177472,28.4708886 C93.4483922,35.2802132 110.226715,40.5625813 110.226715,40.5625813 C110.226715,40.5625813 97.2516738,44.6391608 94.1856437,51.1414037 C91.1196137,57.6436466 96.926932,71.5665602 96.926932,71.5665602 C96.926932,71.5665602 81.3100728,64.6586314 73.7122865,66.4954868 C66.1145002,68.3323423 60.892302,80.018349 60.892302,80.018349 C60.892302,80.018349 52.7006187,70.772092 44.0583927,70.9749349 C35.4161668,71.1777779 24.6411775,79.4098202 24.6411775,79.4098202 C24.6411775,79.4098202 26.2268534,66.5039386 22.0081364,59.5931926 C17.7894195,52.6824465 3.74945934,51.5555413 3.74945934,51.5555413 C3.74945934,51.5555413 19.4716402,42.5036754 20.3083621,35.0858221 C21.1450841,27.6679687 11.5578889,15.6776975 11.5578889,15.6776975 Z" fill="#000000" opacity="0.5"></path>
                                <path d="M49.9183719,2.90140999 C49.9183719,2.90140999 54.891894,12.9590388 64.4498331,15.2128491 C65.492773,15.44951 66.5614175,15.5649022 67.6328872,15.5565552 C77.0650255,15.5481034 89.3174433,7.88796543 89.3174433,7.88796543 C89.3174433,7.88796543 83.1736808,21.317858 85.5141617,27.6088062 C87.8546427,33.8997544 103.360329,38.7848883 103.360329,38.7848883 C103.360329,38.7848883 91.3653642,42.5402999 88.5363078,48.5495218 C85.7072514,54.5587437 91.072804,67.4251836 91.072804,67.4251836 C91.072804,67.4251836 79.8150906,62.4470799 72.3489563,62.4470799 C71.4296495,62.4344384 70.5121349,62.5290356 69.6164448,62.7288062 C62.5950019,64.419164 57.7677599,75.2177329 57.7677599,75.2177329 C57.7677599,75.2177329 50.3747657,66.8589137 42.4756425,66.8560965 L42.2152639,66.8560965 C34.2166703,67.0504876 24.2696262,74.6570976 24.2696262,74.6570976 C24.2696262,74.6570976 25.7324268,62.7316235 21.8326004,56.3448884 C17.932774,49.9581532 4.96065823,48.927035 4.96065823,48.927035 C4.96065823,48.927035 19.4921194,40.5682158 20.2732549,33.713815 C21.0543904,26.8594142 12.1781164,15.7763017 12.1781164,15.7763017 C12.1781164,15.7763017 22.5727775,19.6049621 30.7644608,19.6049621 C32.8123817,19.6049621 34.6964689,19.368312 36.2645911,18.7823213 C44.1637143,15.8241952 49.9183719,2.90986178 49.9183719,2.90986178 L49.9183719,2.90140999 Z M49.8569343,-0.000370860485 L48.7744618,2.43092708 C48.7100986,2.57460749 43.1280515,14.9311228 35.8140485,17.6582334 C34.5004536,18.1484371 32.8006793,18.3991735 30.7644608,18.3991735 C22.9004448,18.3991735 12.7252038,14.686021 12.6257334,14.6493965 L8.50063569,13.1337091 L11.1921888,16.5144246 C12.7491254,18.5129189 14.1709766,20.6057692 15.4489385,22.7800174 C18.0819796,27.2876382 19.3253601,31.0261461 19.0357256,33.5729519 C18.4506054,38.706005 8.21100117,45.6477409 4.32287717,47.8902822 L0.999394205,49.8032038 L4.85826219,50.1102854 C4.98113744,50.1102854 17.2335553,51.1723936 20.7618303,56.9449654 C24.4012782,62.9034765 23.0496505,74.3922749 23.0350225,74.5077827 L22.6839503,77.3898427 L25.0449105,75.5867944 C25.1385297,75.5135456 34.7637577,68.2281035 42.24452,68.050616 L42.4756425,68.050616 C49.7165054,68.050616 56.7525763,75.9107796 56.8110883,75.9924803 L58.1071297,77.457457 L58.8999676,75.6882159 C58.9438516,75.5867944 63.5809295,65.4136578 69.9060793,63.8867013 C70.7021034,63.709789 71.5174783,63.6265409 72.3343283,63.6387822 C79.4493905,63.6387822 90.4320974,68.4591191 90.5403446,68.5098298 L93.3752522,69.7635119 L92.2050117,66.9744215 C90.7685415,63.5260917 87.5094218,53.5811534 89.6480362,49.0397255 C90.6895503,46.8281741 93.4249874,44.5546429 97.5647131,42.4698683 C99.5484694,41.4722177 101.607022,40.6190188 103.723104,39.917428 L107.347924,38.7905229 L103.746508,37.6382623 C99.5921547,36.3423213 88.4339117,31.8994977 86.6844022,27.1974858 C84.8997855,22.4081387 88.7996119,11.9842658 90.4525766,8.36126561 L92.1347973,4.69882376 L88.6387038,6.88501982 C88.5187542,6.95826865 76.5764501,14.3592185 67.6328872,14.3592185 C66.6609585,14.3674852 65.6915094,14.2634422 64.7453188,14.0493195 C55.8631936,11.9560931 51.0886124,2.49854139 51.0418028,2.39711992 L49.8569343,-0.000370860485 Z" fill="#FFFFFF"></path>
                                <path d="M85.5141617,27.6088062 C83.1736808,21.317858 89.3174433,7.88796543 89.3174433,7.88796543 C89.3174433,7.88796543 77.0650255,15.5481034 67.6328872,15.5481034 C66.5617702,15.5592201 65.4931303,15.4466659 64.4498331,15.2128491 C54.891894,12.9590388 49.9183719,2.90986178 49.9183719,2.90986178 C49.9183719,2.90986178 44.1637143,15.8241952 36.2645911,18.7823213 C34.6935433,19.368312 32.7977537,19.6049621 30.7644608,19.6049621 C22.5727775,19.5965103 12.1781164,15.7763017 12.1781164,15.7763017 C12.1781164,15.7763017 21.0514648,26.8481452 20.2732549,33.7053632 C19.495045,40.5625813 4.96065823,48.9185832 4.96065823,48.9185832 C4.96065823,48.9185832 17.932774,49.9497014 21.8326004,56.3448884 C25.7324268,62.7400753 24.2696262,74.6570976 24.2696262,74.6570976 C24.2696262,74.6570976 34.2166703,67.0504876 42.2152639,66.861731 C50.3747657,66.8532792 57.7560575,75.2205502 57.7560575,75.2205502 C57.7560575,75.2205502 62.5832995,64.4219813 69.6047424,62.7316235 C70.5004325,62.5318528 71.417947,62.4372556 72.3372539,62.4498972 C79.8033882,62.4498972 91.0611016,67.4280009 91.0611016,67.4280009 C91.0611016,67.4280009 85.695549,54.5643782 88.5246054,48.552339 C91.3536617,42.5402999 103.348627,38.7877056 103.348627,38.7877056 C103.348627,38.7877056 87.8546427,33.8913026 85.5141617,27.6088062 Z" fill="#FFED00"></path>
                            </g>
                        </g>
                    </g>
                </g>
            </g>
        </g>
    </g>
</svg>